# xmcd
#
# Track frame offsets: 
#        150
#        18140
#        38190
#        52212
#        68912
#        78412
#        91940
#        109642
#        129692
#        145302
#        156835
#        168402
#        183960
#        196072
#        212630
#        223835
#        240717
#        255712
#        271845
#        293227
#        305497
#
# Disc length: 4245 seconds
#
# Revision: 0
# Processed by: cddbd v1.4PL0 Copyright (c) Steve Scherf et al.
# Submitted via: ExactAudioCopy v0.90b3
#
DISCID=32109315
DTITLE=Bill Henderson - His Complete Vee-Jay Recordings
DYEAR=1993
DGENRE=Blues
TTITLE0=Never Kiss and Run
TTITLE1=Sleepin' Bee
TTITLE2=Don't Like Goodbyes
TTITLE3=Old Country
TTITLE4=Slowly
TTITLE5=Opportunity
TTITLE6=Never Will I Marry
TTITLE7=My How the Time Goes By
TTITLE8=Hooray for Love
TTITLE9=Skylark
TTITLE10=Royal Garden Blues
TTITLE11=Twelfth of Never
TTITLE12=Love is a Bug
TTITLE13=Bewitched
TTITLE14=The More I See You
TTITLE15=I Can't Give You Anything But Love
TTITLE16=Accentuate the Positive
TTITLE17=Yes Indeed
TTITLE18=Please Send Me Someone to Love
TTITLE19=Sweet Georgia Brown
TTITLE20=Am I Blue
EXTD=
EXTT0=
EXTT1=
EXTT2=
EXTT3=
EXTT4=
EXTT5=
EXTT6=
EXTT7=
EXTT8=
EXTT9=
EXTT10=
EXTT11=
EXTT12=
EXTT13=
EXTT14=
EXTT15=
EXTT16=
EXTT17=
EXTT18=
EXTT19=
EXTT20=
PLAYORDER=
